<svg width="90" height="16" viewBox="0 0 90 16" fill="none" xmlns="http://www.w3.org/2000/svg">
<path d="M7.32812 2.34082V10.4893L2.52246 2.34082H1.53125V12H2.43359V3.82422L7.23926 12H8.23047V2.34082H7.32812ZM11.293 12H17.6094V11.1113H12.2295V7.58398H17.0693V6.71582H12.2295V3.20898H17.6094V2.34082H11.293V12ZM19.0176 12H20.1387L23.0234 7.77539L25.915 12H27.0361L23.666 7.12598L26.9746 2.34082H25.8535L23.0303 6.51758L20.2002 2.34082H19.0791L22.3877 7.12598L19.0176 12ZM31.5 12H32.4365V3.18848H35.8066V2.34082H28.1299V3.18848H31.5V12ZM41.3574 12H42.2871V7.77539H44.0098C45.9785 7.77539 47.2568 6.80469 47.2568 5.0752C47.2568 3.3457 45.958 2.34082 44.0098 2.34082H41.3574V12ZM42.2871 6.88672V3.22266H44.0098C45.5273 3.22266 46.3271 3.90625 46.3271 5.0752C46.3271 6.24414 45.5547 6.88672 44.0098 6.88672H42.2871ZM53.2246 12.1025C56.2529 12.1025 57.6611 9.79883 57.6611 7.16699C57.6611 4.53516 56.2529 2.23828 53.2246 2.23828C50.2168 2.23828 48.8018 4.53516 48.8018 7.16699C48.8018 9.79883 50.2168 12.1025 53.2246 12.1025ZM53.2246 11.2617C50.8184 11.2617 49.7861 9.38184 49.7861 7.16699C49.7861 4.95898 50.8184 3.07227 53.2246 3.07227C55.6514 3.07227 56.6768 4.95898 56.6768 7.16699C56.6768 9.38184 55.6514 11.2617 53.2246 11.2617ZM62.5352 12.0889C64.2852 12.0889 65.6387 11.002 65.6387 9.34766C65.6387 6.16211 60.6758 6.95508 60.6758 4.6582C60.6758 3.74219 61.4346 3.07227 62.4395 3.07227C63.335 3.07227 63.9844 3.46875 64.4287 4.27539L65.208 3.79004C64.5928 2.70996 63.6562 2.23828 62.4736 2.23828C60.9561 2.23828 59.7393 3.19531 59.7393 4.69922C59.7393 7.71387 64.7021 6.88672 64.7021 9.42285C64.7021 10.4688 63.8545 11.248 62.5488 11.248C61.2568 11.248 60.2861 10.5439 60.0947 9.2041L59.165 9.43652C59.4521 11.1523 60.8672 12.0889 62.5352 12.0889ZM70.1367 12H71.0732V3.18848H74.4434V2.34082H66.7666V3.18848H70.1367V12Z" fill="#171717"/>
<path opacity="0.4" d="M85 3L89 7L85 11" stroke="#171717" stroke-width="1.33333" stroke-linecap="round" stroke-linejoin="round"/>
</svg>
