<svg width="99" height="16" viewBox="0 0 99 16" fill="none" xmlns="http://www.w3.org/2000/svg">
<path d="M20.3184 12.1025C23.3467 12.1025 24.7549 9.79883 24.7549 7.16699C24.7549 4.53516 23.3467 2.23828 20.3184 2.23828C17.3105 2.23828 15.8955 4.53516 15.8955 7.16699C15.8955 9.79883 17.3105 12.1025 20.3184 12.1025ZM20.3184 11.2617C17.9121 11.2617 16.8799 9.38184 16.8799 7.16699C16.8799 4.95898 17.9121 3.07227 20.3184 3.07227C22.7451 3.07227 23.7705 4.95898 23.7705 7.16699C23.7705 9.38184 22.7451 11.2617 20.3184 11.2617ZM27.1953 12H32.5547V11.1113H28.1318V2.34082H27.1953V12ZM34.5371 12H37.1279C40.2998 12 42.0703 10.2637 42.0703 7.24219C42.0703 4.09766 40.3408 2.34082 37.1416 2.34082H34.5371V12ZM35.4736 11.1318V3.20898H37.1279C39.835 3.20898 41.1338 4.51465 41.1338 7.20801C41.1338 9.8877 39.6162 11.1318 37.0459 11.1318H35.4736ZM44.4902 12H50.8066V11.1113H45.4268V7.58398H50.2666V6.71582H45.4268V3.20898H50.8066V2.34082H44.4902V12ZM53.1992 12H54.1357V7.63867H55.5098C55.7354 7.63867 55.9609 7.63184 56.1592 7.61816L58.6816 12H59.748L57.0752 7.52246C58.3262 7.22168 59.1191 6.33984 59.1191 5.03418C59.1191 3.31152 57.7656 2.34082 55.9062 2.34082H53.1992V12ZM54.1426 6.85938V3.18848H55.9131C57.3281 3.18848 58.1826 3.87207 58.1826 5.04785C58.1826 6.19629 57.3896 6.83887 55.9814 6.85938H54.1426ZM65.4219 12H66.3516V7.77539H68.0742C70.043 7.77539 71.3213 6.80469 71.3213 5.0752C71.3213 3.3457 70.0225 2.34082 68.0742 2.34082H65.4219V12ZM66.3516 6.88672V3.22266H68.0742C69.5918 3.22266 70.3916 3.90625 70.3916 5.0752C70.3916 6.24414 69.6191 6.88672 68.0742 6.88672H66.3516ZM77.2891 12.1025C80.3174 12.1025 81.7256 9.79883 81.7256 7.16699C81.7256 4.53516 80.3174 2.23828 77.2891 2.23828C74.2812 2.23828 72.8662 4.53516 72.8662 7.16699C72.8662 9.79883 74.2812 12.1025 77.2891 12.1025ZM77.2891 11.2617C74.8828 11.2617 73.8506 9.38184 73.8506 7.16699C73.8506 4.95898 74.8828 3.07227 77.2891 3.07227C79.7158 3.07227 80.7412 4.95898 80.7412 7.16699C80.7412 9.38184 79.7158 11.2617 77.2891 11.2617ZM86.5996 12.0889C88.3496 12.0889 89.7031 11.002 89.7031 9.34766C89.7031 6.16211 84.7402 6.95508 84.7402 4.6582C84.7402 3.74219 85.499 3.07227 86.5039 3.07227C87.3994 3.07227 88.0488 3.46875 88.4932 4.27539L89.2725 3.79004C88.6572 2.70996 87.7207 2.23828 86.5381 2.23828C85.0205 2.23828 83.8037 3.19531 83.8037 4.69922C83.8037 7.71387 88.7666 6.88672 88.7666 9.42285C88.7666 10.4688 87.9189 11.248 86.6133 11.248C85.3213 11.248 84.3506 10.5439 84.1592 9.2041L83.2295 9.43652C83.5166 11.1523 84.9316 12.0889 86.5996 12.0889ZM94.2012 12H95.1377V3.18848H98.5078V2.34082H90.8311V3.18848H94.2012V12Z" fill="#A2A2A2"/>
<path opacity="0.4" d="M5 3L1 7L5 11" stroke="#171717" stroke-width="1.33333" stroke-linecap="round" stroke-linejoin="round"/>
</svg>
